<svg width="97" height="74" viewBox="0 0 97 74" fill="none" xmlns="http://www.w3.org/2000/svg">
<g clip-path="url(#clip0_1_1790)">
<path d="M68.5301 11.6247L48.3896 23.2494L44.3353 20.928L60.4513 11.6247L56.3969 9.3033L40.2809 18.6007L28.1179 11.6247L48.2584 0L52.3128 2.3273L36.2027 11.6247L40.2571 13.952L56.3671 4.64869L68.5301 11.6247Z" fill="white"/>
<path d="M47.1853 25.3517L47.1734 29.9827L30.956 20.6794L30.9441 25.3103L47.1614 34.6077L47.1197 48.4886L26.848 36.8639L26.8599 32.2389L43.0773 41.5363L43.0952 36.9113L26.8719 27.608L26.9136 13.7271L47.1853 25.3517Z" fill="white"/>
<path d="M70.0864 13.7686L70.0983 18.3936L53.881 27.6909L53.8929 32.3219L70.1162 23.0186L70.152 36.9054L49.8803 48.5301L49.8684 43.8992L66.0857 34.6018L66.0738 29.9709L49.8564 39.2742L49.8147 25.3932L70.0864 13.7686Z" fill="white"/>
<path d="M2.12256 73.6208C1.24015 73.3662 0.536603 73.0346 0 72.6319L0.936075 70.5651C1.44883 70.9382 2.05698 71.2343 2.76053 71.4593C3.46407 71.6844 4.16762 71.7969 4.87117 71.7969C5.65222 71.7969 6.23652 71.6785 6.60618 71.4475C6.98181 71.2165 7.16664 70.9086 7.16664 70.5237C7.16664 70.2394 7.05335 70.0085 6.83275 69.819C6.61215 69.6354 6.32596 69.4814 5.98015 69.3689C5.63434 69.2564 5.16332 69.132 4.57305 68.9958C3.66679 68.7826 2.92151 68.5695 2.34317 68.3503C1.76483 68.1372 1.26996 67.7937 0.852603 67.3199C0.435245 66.8462 0.232528 66.2125 0.232528 65.4249C0.232528 64.738 0.417358 64.1162 0.79298 63.5536C1.1686 62.997 1.73502 62.5528 2.48626 62.2271C3.24347 61.9014 4.16166 61.7356 5.25275 61.7356C6.01592 61.7356 6.75524 61.8244 7.48264 62.008C8.21003 62.1857 8.84799 62.4462 9.39056 62.7838L8.53796 64.8624C7.43494 64.2406 6.33192 63.9326 5.23486 63.9326C4.45977 63.9326 3.89336 64.057 3.5237 64.3057C3.15404 64.5544 2.96921 64.8801 2.96921 65.2887C2.96921 65.6973 3.18385 65.9994 3.60717 66.1948C4.03049 66.3902 4.68037 66.5856 5.55683 66.781C6.46309 66.9942 7.20837 67.2074 7.78671 67.4265C8.36505 67.6397 8.85992 67.9773 9.27728 68.4392C9.69463 68.9011 9.89735 69.5288 9.89735 70.3164C9.89735 70.9915 9.70656 71.6133 9.32497 72.17C8.94339 72.7266 8.37101 73.1708 7.6138 73.4965C6.85064 73.8222 5.92649 73.988 4.83539 73.988C3.91124 73.9998 2.99902 73.8755 2.12256 73.6208Z" fill="white"/>
<path d="M18.9599 67.9357C19.5144 68.5397 19.7947 69.2859 19.7947 70.1801C19.7947 70.867 19.6158 71.5007 19.2521 72.081C18.8884 72.6614 18.3339 73.1292 17.5886 73.4786C16.8433 73.828 15.9311 74.0057 14.8519 74.0057C14.0113 74.0057 13.1825 73.8931 12.3716 73.674C11.5608 73.4549 10.8691 73.1411 10.3027 72.7324L11.3759 70.6361C11.8291 70.9736 12.3538 71.2342 12.95 71.4237C13.5462 71.6073 14.1544 71.702 14.7804 71.702C15.472 71.702 16.0205 71.5718 16.414 71.3053C16.8135 71.0388 17.0103 70.6657 17.0103 70.1801C17.0103 69.2089 16.265 68.7233 14.7804 68.7233H13.5224V66.9112L15.9728 64.1516H10.899V61.9546H19.2461V63.7312L16.5571 66.775C17.6005 66.9468 18.3995 67.3317 18.9599 67.9357Z" fill="white"/>
<path d="M26.6036 62.6238C26.4665 62.4936 26.4009 62.3337 26.4009 62.1442C26.4009 61.9547 26.4665 61.7888 26.6036 61.6526C26.7407 61.5164 26.9017 61.4513 27.0985 61.4513C27.2893 61.4513 27.4562 61.5164 27.5933 61.6467C27.7305 61.777 27.7961 61.9369 27.7961 62.1264C27.7961 62.3159 27.7305 62.4817 27.5933 62.6179C27.4562 62.7541 27.2952 62.8193 27.0985 62.8193C26.9077 62.8193 26.7407 62.7541 26.6036 62.6238ZM26.6751 64.963H27.5277V73.7925H26.6751V64.963Z" fill="white"/>
<path d="M38.0989 65.8629C38.7488 66.5084 39.0707 67.4322 39.0707 68.6403V73.7983H38.2181V68.7054C38.2181 67.7105 37.9677 66.9585 37.4609 66.4373C36.9541 65.9162 36.2506 65.6616 35.3383 65.6616C34.2949 65.6616 33.4722 65.9695 32.87 66.5913C32.2678 67.2131 31.9697 68.0481 31.9697 69.0963V73.7983H31.1171V64.9628H31.9339V66.8756C32.238 66.2538 32.6971 65.7682 33.3052 65.4188C33.9134 65.0694 34.6288 64.8917 35.4576 64.8917C36.5725 64.8976 37.4549 65.2174 38.0989 65.8629Z" fill="white"/>
<path d="M49.5643 65.8629C50.2142 66.5084 50.5362 67.4322 50.5362 68.6403V73.7983H49.6836V68.7054C49.6836 67.7105 49.4332 66.9585 48.9264 66.4373C48.4196 65.9162 47.716 65.6616 46.8038 65.6616C45.7604 65.6616 44.9376 65.9695 44.3354 66.5913C43.7332 67.2131 43.4351 68.0481 43.4351 69.0963V73.7983H42.5825V64.9628H43.3994V66.8756C43.7034 66.2538 44.1625 65.7682 44.7707 65.4188C45.3788 65.0694 46.0943 64.8917 46.923 64.8917C48.038 64.8976 48.9204 65.2174 49.5643 65.8629Z" fill="white"/>
<path d="M55.2641 73.2891C54.5904 72.9042 54.0598 72.3713 53.6722 71.6902C53.2847 71.0092 53.0939 70.2394 53.0939 69.3807C53.0939 68.522 53.2847 67.7522 53.6722 67.0712C54.0598 66.3901 54.5904 65.8572 55.2641 65.4722C55.9379 65.0873 56.6951 64.8978 57.5358 64.8978C58.3764 64.8978 59.1336 65.0873 59.8074 65.4722C60.4811 65.8572 61.0118 66.3901 61.3993 67.0712C61.7868 67.7522 61.9776 68.522 61.9776 69.3807C61.9776 70.2394 61.7868 71.0092 61.3993 71.6902C61.0118 72.3713 60.4811 72.9042 59.8074 73.2891C59.1336 73.6741 58.3764 73.8636 57.5358 73.8636C56.6951 73.8636 55.9379 73.6741 55.2641 73.2891ZM59.3662 72.6318C59.9028 72.318 60.3321 71.8738 60.6421 71.3112C60.9521 70.7487 61.1131 70.1032 61.1131 69.3807C61.1131 68.6582 60.9581 68.0187 60.6421 67.4502C60.3321 66.8876 59.9028 66.4494 59.3662 66.1296C58.8296 65.8157 58.2155 65.6558 57.5358 65.6558C56.8561 65.6558 56.2419 65.8157 55.7053 66.1296C55.1687 66.4434 54.7395 66.8876 54.4294 67.4502C54.1194 68.0127 53.9584 68.6582 53.9584 69.3807C53.9584 70.1032 54.1134 70.7427 54.4294 71.3112C54.7395 71.8738 55.1687 72.318 55.7053 72.6318C56.2419 72.9457 56.8561 73.1056 57.5358 73.1056C58.2155 73.1056 58.8296 72.9457 59.3662 72.6318Z" fill="white"/>
<path d="M71.5053 64.9631L67.4868 73.7927H66.6163L62.6156 64.9631H63.5159L67.0575 72.8629L70.6348 64.9631H71.5053Z" fill="white"/>
<path d="M78.6243 65.7327C79.2145 66.2894 79.5126 67.1125 79.5126 68.1962V73.7983H78.6958V72.2231C78.4096 72.7442 77.9982 73.1469 77.4497 73.4311C76.9071 73.7213 76.2513 73.8634 75.4881 73.8634C74.4984 73.8634 73.7173 73.6325 73.1449 73.1706C72.5726 72.7087 72.2864 72.0987 72.2864 71.3407C72.2864 70.6064 72.5487 70.0142 73.0794 69.5582C73.61 69.1022 74.4507 68.8713 75.6074 68.8713H78.6541V68.1607C78.6541 67.3375 78.4275 66.7098 77.9803 66.2834C77.5332 65.8571 76.8773 65.6379 76.0128 65.6379C75.4225 65.6379 74.8561 65.7386 74.3195 65.94C73.7829 66.1413 73.3238 66.4137 72.9482 66.7513L72.5249 66.1413C72.9661 65.7445 73.5027 65.4366 74.1287 65.2175C74.7548 64.9984 75.4046 64.8859 76.0903 64.8859C77.1874 64.8977 78.034 65.176 78.6243 65.7327ZM77.4914 72.6613C78.0101 72.3238 78.3977 71.8322 78.66 71.1868V69.5286H75.6252C74.7488 69.5286 74.1168 69.6885 73.7233 70.0024C73.3298 70.3162 73.133 70.7545 73.133 71.3052C73.133 71.8796 73.3477 72.3356 73.7829 72.6672C74.2122 72.9988 74.8203 73.1647 75.6074 73.1647C76.3467 73.1706 76.9727 72.9989 77.4914 72.6613Z" fill="white"/>
<path d="M87.4306 73.236C87.2159 73.4374 86.9476 73.5913 86.6197 73.7038C86.2977 73.8104 85.9579 73.8637 85.6061 73.8637C84.831 73.8637 84.2348 73.6505 83.8174 73.2301C83.4001 72.8096 83.1854 72.2174 83.1854 71.4594V65.6915H81.5518V64.9631H83.1854V63.0326H84.038V64.9631H86.8641V65.6915H84.038V71.3765C84.038 71.951 84.1752 72.3892 84.4554 72.6853C84.7356 72.9814 85.147 73.1353 85.6896 73.1353C86.2441 73.1353 86.7032 72.9695 87.0669 72.6438L87.4306 73.236Z" fill="white"/>
<path d="M96.9821 69.5819H89.3325C89.3564 70.2688 89.5293 70.8847 89.8632 71.4177C90.1911 71.9506 90.6382 72.3652 91.1987 72.6613C91.7592 72.9573 92.3912 73.0995 93.1007 73.0995C93.679 73.0995 94.2156 72.9929 94.7105 72.7856C95.2053 72.5783 95.6167 72.2704 95.9447 71.8618L96.4395 72.4185C96.052 72.8804 95.569 73.2357 94.9847 73.4844C94.4004 73.7331 93.7684 73.8575 93.0828 73.8575C92.1944 73.8575 91.4074 73.668 90.7158 73.2831C90.0241 72.8981 89.4816 72.3711 89.0881 71.6901C88.6946 71.015 88.4978 70.2392 88.4978 69.3746C88.4978 68.5159 88.6826 67.7461 89.0523 67.0651C89.4219 66.384 89.9287 65.8511 90.5786 65.4661C91.2285 65.0812 91.9499 64.8917 92.7608 64.8917C93.5657 64.8917 94.2931 65.0812 94.9311 65.4602C95.575 65.8392 96.0758 66.3663 96.4455 67.0414C96.8151 67.7165 97 68.4863 97 69.345L96.9821 69.5819ZM91.0735 66.0583C90.5727 66.3367 90.1732 66.7216 89.8751 67.2249C89.577 67.7283 89.3981 68.2909 89.3564 68.9245H96.1712C96.1354 68.2909 95.9685 67.7283 95.6585 67.2309C95.3544 66.7334 94.949 66.3485 94.4481 66.0643C93.9473 65.78 93.3869 65.6438 92.7608 65.6438C92.1348 65.6438 91.5743 65.78 91.0735 66.0583Z" fill="white"/>
</g>
<defs>
<clipPath id="clip0_1_1790">
<rect width="97" height="74" fill="white"/>
</clipPath>
</defs>
</svg>
