<svg width="132" height="150" viewBox="0 0 132 150" fill="none" xmlns="http://www.w3.org/2000/svg">
<path d="M126.613 35.9184L65.3036 71.8367L52.9603 64.6516L102.007 35.9184L89.6655 28.7351L40.6189 57.4683L3.59277 35.9184L64.9024 0L77.2438 7.18331L28.1954 35.9184L40.5387 43.1017L89.5852 14.3666L126.613 35.9184Z" fill="white"/>
<path d="M61.9592 78.2405L61.9209 92.5843L12.5119 63.7548L12.4718 78.0985L61.8789 106.928L61.7584 149.959L0 113.925L0.040155 99.5809L49.4473 128.409L49.4874 114.065L0.08031 85.2372L0.200775 42.2041L61.9592 78.2405Z" fill="white"/>
<path d="M131.799 42.2041L131.839 56.5478L82.4322 85.3755L82.4724 99.7192L131.879 70.8916L132 113.923L70.2415 149.959L70.2014 135.615L119.608 106.786L119.568 92.4422L70.1612 121.272L70.0408 78.2387L131.799 42.2041Z" fill="white"/>
</svg>
