<svg width="62" height="70" viewBox="0 0 62 70" fill="none" xmlns="http://www.w3.org/2000/svg">
<path d="M59.4521 16.7808L30.7788 33.5616L25.0061 30.2048L47.9442 16.7808L42.1724 13.4248L19.2342 26.8488L1.91785 16.7808L30.5911 0L36.363 3.35599L13.424 16.7808L19.1967 20.1368L42.1348 6.71199L59.4521 16.7808Z" fill="#2874A6"/>
<path d="M28.7671 36.8126L28.7493 43.4501L5.80919 30.1094L5.79054 36.7469L28.7298 50.0876L28.6739 70L0 53.3252L0.0186436 46.6877L22.9579 60.0275L22.9766 53.3901L0.0372873 40.0502L0.0932182 20.137L28.7671 36.8126Z" fill="#1B4F72"/>
<path d="M61.2767 20.137L61.2953 26.7744L38.356 40.1143L38.3747 46.7517L61.314 33.4119L61.3699 53.3243L32.696 70L32.6774 63.3625L55.6167 50.0218L55.598 43.3843L32.6587 56.725L32.6028 36.8117L61.2767 20.137Z" fill="#5DADE2"/>
</svg>
