<svg width="179" height="53" viewBox="0 0 179 53" fill="none" xmlns="http://www.w3.org/2000/svg">
<g clip-path="url(#clip0_1:1575)">
<path d="M44.9225 12.6968L23.2167 25.3935L18.8468 22.8537L36.211 12.6968L31.8417 10.1575L14.4775 20.3144L1.3689 12.6968L23.0747 0L27.444 2.53922L10.0791 12.6968L14.449 15.236L31.8133 5.07844L44.9225 12.6968Z" fill="#2874A6"/>
<path d="M21.9182 27.6894L21.9046 32.7432L4.42612 22.5856L4.41192 27.6394L21.8898 37.7969L21.8472 52.9582L0 40.2621L0.0142049 35.2083L17.4921 45.3652L17.5063 40.3115L0.0284098 30.1546L0.0710246 14.9927L21.9182 27.6894Z" fill="#1B4F72"/>
<path d="M46.5979 15.0347L46.6121 20.0884L29.1342 30.2453L29.1484 35.2991L46.6263 25.1422L46.6689 40.3034L24.8218 53.0002L24.8076 47.9464L42.2854 37.7889L42.2712 32.7351L24.7933 42.8927L24.7507 27.7308L46.5979 15.0347Z" fill="#5DADE2"/>
<path d="M64.8398 35.1875C63.7809 34.8782 62.9303 34.4761 62.2881 33.9813L63.4154 31.4642C64.0839 31.9451 64.8253 32.3143 65.6107 32.5573C66.4311 32.8283 67.2887 32.9676 68.1521 32.97C69.0948 32.97 69.7915 32.8292 70.2421 32.5476C70.6928 32.2659 70.9184 31.8911 70.9188 31.4232C70.9215 31.2593 70.8869 31.0969 70.8176 30.9486C70.7484 30.8002 70.6463 30.6698 70.5191 30.5673C70.2157 30.3202 69.8678 30.1344 69.4945 30.02C69.0773 29.8827 68.5139 29.731 67.8041 29.5651C66.7103 29.3051 65.8152 29.0439 65.1187 28.7813C64.4247 28.5218 63.8076 28.0888 63.3257 27.5231C62.8255 26.9464 62.5754 26.1775 62.5754 25.2165C62.5672 24.4055 62.8029 23.611 63.2514 22.9373C63.7021 22.2561 64.3818 21.7163 65.2905 21.3177C66.1991 20.919 67.3093 20.7197 68.6209 20.7197C69.5258 20.7183 70.4275 20.8292 71.3056 21.0499C72.1155 21.2429 72.8901 21.5631 73.6009 21.9988L72.5763 24.5334C71.2509 23.7756 69.9255 23.3967 68.6002 23.3967C67.6708 23.3967 66.9843 23.5484 66.5405 23.8517C66.0967 24.155 65.8748 24.5538 65.8748 25.0482C65.8748 25.5434 66.1309 25.9117 66.6432 26.153C67.1554 26.3944 67.9375 26.6327 68.9895 26.8679C70.0824 27.1279 70.9774 27.3892 71.6742 27.6517C72.3643 27.9079 72.9806 28.3321 73.4679 28.8866C73.9664 29.4498 74.2156 30.2131 74.2156 31.1762C74.2216 31.982 73.982 32.7702 73.5293 33.4347C73.0717 34.1158 72.3851 34.6557 71.4696 35.0543C70.554 35.4529 69.4404 35.6524 68.1289 35.6529C67.0161 35.6558 65.9086 35.4991 64.8398 35.1875Z" fill="#1B4F72"/>
<path d="M85.1004 28.2571C85.7697 28.9936 86.1044 29.9046 86.1044 30.99C86.1099 31.8107 85.8823 32.6159 85.4484 33.3108C85.0115 34.0192 84.3456 34.5866 83.4507 35.0129C82.5557 35.4393 81.4594 35.6525 80.1616 35.6525C79.1541 35.6528 78.1511 35.5175 77.1792 35.2502C76.2025 34.9815 75.3726 34.5998 74.6895 34.105L75.9808 31.5469C76.5537 31.9732 77.1949 32.2976 77.8765 32.5062C78.5892 32.7325 79.3322 32.8473 80.0796 32.8468C80.9125 32.8468 81.5683 32.6852 82.047 32.3619C82.5256 32.0387 82.7647 31.5814 82.7643 30.99C82.7643 29.8075 81.8694 29.2161 80.0796 29.2157H78.5629V27.006L81.5143 23.644H75.4068V20.9644H85.4484V23.1305L82.2084 26.8415C83.4649 27.0495 84.4289 27.5214 85.1004 28.2571Z" fill="#1B4F72"/>
<path d="M94.2994 21.7796C94.2199 21.7049 94.1569 21.6142 94.1145 21.5135C94.0721 21.4127 94.0513 21.3041 94.0534 21.1946C94.0534 20.9706 94.1418 20.7557 94.2992 20.5972C94.4566 20.4388 94.6701 20.3498 94.8927 20.3498C95.0025 20.3477 95.1116 20.3676 95.2137 20.4083C95.3158 20.449 95.4088 20.5098 95.4874 20.587C95.5673 20.662 95.6305 20.7532 95.6729 20.8546C95.7153 20.9559 95.7359 21.0652 95.7334 21.1752C95.7334 21.3992 95.645 21.6141 95.4876 21.7726C95.3301 21.931 95.1166 22.02 94.894 22.02C94.784 22.0219 94.6747 22.0016 94.5726 21.9603C94.4704 21.919 94.3775 21.8575 94.2994 21.7796ZM94.3814 24.6392H95.406V35.4051H94.3814V24.6392Z" fill="black"/>
<path d="M108.132 25.7294C108.911 26.5141 109.3 27.643 109.3 29.1161V35.408H108.276V29.1954C108.276 27.9853 107.972 27.0639 107.364 26.4313C106.756 25.7987 105.906 25.4824 104.812 25.4824C103.555 25.4824 102.565 25.8605 101.842 26.6165C101.119 27.3726 100.757 28.3908 100.756 29.6712V35.406H99.7314V24.6363H100.715V26.9675C101.074 26.2218 101.649 25.6032 102.365 25.1932C103.096 24.7673 103.961 24.5541 104.958 24.5537C106.295 24.5537 107.354 24.9456 108.132 25.7294Z" fill="black"/>
<path d="M121.925 25.7294C122.703 26.5141 123.093 27.643 123.093 29.1161V35.408H122.068V29.1954C122.068 27.9853 121.764 27.0639 121.156 26.4313C120.548 25.7987 119.698 25.4824 118.605 25.4824C117.348 25.4824 116.358 25.8605 115.634 26.6165C114.911 27.3726 114.549 28.3908 114.548 29.6712V35.406H113.524V24.6363H114.507V26.9675C114.866 26.2217 115.441 25.603 116.157 25.1932C116.889 24.7673 117.753 24.5541 118.749 24.5537C120.087 24.5537 121.146 24.9456 121.925 25.7294Z" fill="black"/>
<path d="M128.779 34.7855C127.974 34.326 127.311 33.6511 126.864 32.8357C126.398 32.0026 126.166 31.0641 126.166 30.0203C126.166 28.9765 126.398 28.0381 126.862 27.2049C127.31 26.3895 127.973 25.7147 128.778 25.2551C129.591 24.7872 130.503 24.5532 131.514 24.5532C132.526 24.5532 133.438 24.7872 134.25 25.2551C135.055 25.7148 135.718 26.3896 136.166 27.2049C136.63 28.0368 136.863 28.9752 136.863 30.0203C136.864 31.0654 136.631 32.0041 136.166 32.8364C135.718 33.6517 135.055 34.3265 134.25 34.7861C133.437 35.2541 132.525 35.4881 131.514 35.4881C130.504 35.4881 129.592 35.2539 128.779 34.7855ZM133.719 33.9815C134.367 33.5965 134.899 33.0399 135.255 32.3724C135.631 31.6847 135.819 30.9007 135.819 30.0203C135.819 29.1399 135.631 28.3561 135.255 27.6689C134.899 27.0022 134.368 26.4464 133.72 26.0617C133.07 25.6769 132.336 25.4846 131.517 25.4846C130.698 25.4846 129.963 25.6769 129.313 26.0617C128.664 26.4465 128.132 27.0031 127.775 27.6709C127.399 28.3585 127.212 29.1423 127.212 30.0223C127.212 30.9022 127.399 31.6863 127.775 32.3743C128.132 33.0421 128.664 33.5986 129.313 33.9835C129.961 34.3682 130.695 34.5606 131.516 34.5606C132.336 34.5606 133.071 34.3676 133.72 33.9815H133.719Z" fill="black"/>
<path d="M148.321 24.6362L143.484 35.4047H142.437L137.621 24.6362H138.707L142.968 34.2699L147.272 24.6362H148.321Z" fill="black"/>
<path d="M156.887 25.5753C157.597 26.2559 157.952 27.2564 157.953 28.5766V35.4046H156.969V33.486C156.628 34.1176 156.107 34.6314 155.473 34.9607C154.818 35.3117 154.032 35.4871 153.116 35.4871C151.927 35.4871 150.988 35.2055 150.298 34.6422C149.609 34.079 149.264 33.3363 149.265 32.4143C149.265 31.5209 149.583 30.7956 150.218 30.2384C150.854 29.6812 151.868 29.4026 153.261 29.4026H156.93V28.535C156.93 27.5315 156.66 26.7683 156.12 26.2453C155.581 25.7224 154.791 25.4611 153.753 25.4615C153.057 25.4589 152.366 25.5847 151.714 25.8326C151.107 26.0549 150.547 26.391 150.064 26.8231L149.552 26.0802C150.114 25.5823 150.768 25.2005 151.476 24.9565C152.233 24.6876 153.03 24.5515 153.833 24.5542C155.158 24.5538 156.176 24.8941 156.887 25.5753ZM155.524 34.0242C156.145 33.6113 156.613 33.0131 156.928 32.2298V30.2059H153.28C152.228 30.2059 151.466 30.3985 150.995 30.7837C150.524 31.1689 150.287 31.6983 150.285 32.3721C150.285 33.0731 150.544 33.6266 151.063 34.0326C151.582 34.4386 152.314 34.6414 153.259 34.6409C154.148 34.6405 154.903 34.4343 155.524 34.0222V34.0242Z" fill="black"/>
<path d="M167.482 34.7239C167.203 34.9829 166.871 35.1767 166.509 35.2913C166.115 35.4221 165.704 35.488 165.29 35.4862C164.36 35.4862 163.642 35.2282 163.138 34.7122C162.633 34.1962 162.38 33.4791 162.38 32.561V25.5237H160.412V24.6366H162.38V22.2852H163.404V24.6366H166.806V25.5237H163.404V32.455C163.404 33.1565 163.571 33.6894 163.906 34.0538C164.241 34.4182 164.736 34.6004 165.391 34.6004C166.06 34.6004 166.614 34.4009 167.051 34.0018L167.482 34.7239Z" fill="black"/>
<path d="M178.982 30.2681H169.778C169.805 31.1069 170.017 31.853 170.413 32.5064C170.8 33.1515 171.357 33.6762 172.022 34.0227C172.698 34.3806 173.46 34.5593 174.307 34.5588C174.971 34.5654 175.63 34.4356 176.244 34.1773C176.824 33.9331 177.335 33.5466 177.729 33.053L178.323 33.7341C177.852 34.3034 177.251 34.7494 176.571 35.0339C175.848 35.3408 175.07 35.4956 174.286 35.4889C173.22 35.4889 172.27 35.2549 171.437 34.787C170.619 34.3351 169.942 33.6641 169.48 32.8483C169.006 32.025 168.769 31.0829 168.769 30.0218C168.769 28.9771 168.991 28.0387 169.436 27.2063C169.856 26.3984 170.491 25.7235 171.27 25.2566C172.049 24.7887 172.923 24.5547 173.893 24.5547C174.863 24.5547 175.734 24.7852 176.506 25.2462C177.281 25.7068 177.914 26.3739 178.336 27.1738C178.781 27.9971 179.003 28.9323 179.003 29.9795L178.982 30.2681ZM171.87 25.9676C171.271 26.3029 170.772 26.7946 170.425 27.3909C170.058 28.0225 169.844 28.7327 169.8 29.4635H178.001C177.972 28.7346 177.76 28.025 177.385 27.4007C177.025 26.7976 176.512 26.3008 175.9 25.9604C175.288 25.62 174.598 25.4481 173.899 25.462C173.19 25.4507 172.49 25.625 171.868 25.9676H171.87Z" fill="black"/>
</g>
<defs>
<clipPath id="clip0_1:1575">
<rect width="179" height="53" fill="white"/>
</clipPath>
</defs>
</svg>
