<svg width="626" height="81" viewBox="0 0 626 81" fill="none" xmlns="http://www.w3.org/2000/svg">
<path d="M13.6982 78.5162C8.00344 76.8732 3.46303 74.7336 0 72.1355L6.04106 58.8393C9.35017 61.2463 13.2749 63.1567 17.8154 64.6086C22.3558 66.0605 26.8962 66.7864 31.4366 66.7864C36.4772 66.7864 40.2481 66.0223 42.6337 64.5322C45.0578 63.0421 46.2507 61.0553 46.2507 58.5718C46.2507 56.7379 45.5196 55.2478 44.0959 54.0251C42.6722 52.8407 40.8252 51.8473 38.5935 51.1214C36.3618 50.3954 33.322 49.5931 29.5127 48.7143C23.664 47.3388 18.8543 45.9633 15.1219 44.5497C11.3895 43.1742 8.19583 40.9581 5.50237 37.9015C2.8089 34.8449 1.50065 30.7567 1.50065 25.6751C1.50065 21.2431 2.69347 17.2313 5.11759 13.6015C7.5417 10.01 11.1971 7.14447 16.0454 5.04305C20.9706 3.01805 26.9347 1.94824 33.9762 1.94824C38.9013 1.94824 43.6726 2.52136 48.367 3.70579C53.0613 4.85202 57.1784 6.53315 60.6799 8.71098L55.1776 22.16C48.0591 18.1482 40.9407 16.1614 33.8607 16.1614C28.8586 16.1614 25.2031 16.9638 22.8175 18.5685C20.4319 20.1732 19.239 22.2747 19.239 24.911C19.239 27.5473 20.6243 29.4959 23.3562 30.7567C26.0881 32.0176 30.2823 33.2784 35.9385 34.5393C41.7872 35.9148 46.597 37.2902 50.3293 38.7039C54.0617 40.0794 57.2554 42.2572 59.9489 45.2374C62.6423 48.2176 63.9506 52.2676 63.9506 57.3492C63.9506 61.7048 62.7193 65.7166 60.2567 69.3081C57.7941 72.8997 54.1002 75.7652 49.2135 77.8666C44.2883 79.968 38.3242 81.0379 31.2827 81.0379C25.2416 80.9997 19.3545 80.1591 13.6982 78.5162Z" fill="white"/>
<path d="M122.36 41.8753C125.939 45.7724 127.747 50.5866 127.747 56.3559C127.747 60.788 126.593 64.8762 124.246 68.6205C121.899 72.3649 118.32 75.3833 113.51 77.6375C108.701 79.8918 102.813 81.038 95.8489 81.038C90.4235 81.038 85.075 80.3121 79.842 78.8984C74.609 77.4847 70.1455 75.4597 66.4901 72.8234L73.4162 59.2979C76.3405 61.4757 79.7266 63.1569 83.5744 64.3795C87.4222 65.5639 91.347 66.1753 95.3872 66.1753C99.8506 66.1753 103.391 65.3347 105.93 63.6154C108.508 61.896 109.778 59.4889 109.778 56.3559C109.778 50.0899 104.968 46.9569 95.3872 46.9569H87.2683V35.2654L103.121 17.4606H70.3764V3.28564H124.246V14.7479L106.854 34.3866C113.587 35.4564 118.743 37.9781 122.36 41.8753Z" fill="white"/>
<path d="M171.689 7.60318C170.804 6.76261 170.381 5.73101 170.381 4.50837C170.381 3.28573 170.804 2.21592 171.689 1.33714C172.574 0.458369 173.613 0.0380859 174.883 0.0380859C176.114 0.0380859 177.192 0.458369 178.077 1.29894C178.962 2.1395 179.385 3.1711 179.385 4.39375C179.385 5.61639 178.962 6.6862 178.077 7.56497C177.192 8.44375 176.153 8.86403 174.883 8.86403C173.652 8.82582 172.574 8.40554 171.689 7.60318ZM172.151 22.6952H177.653V79.6626H172.151V22.6952Z" fill="white"/>
<path d="M245.875 28.5029C250.069 32.6675 252.147 38.6279 252.147 46.4222V79.701H246.645V46.8425C246.645 40.4236 245.028 35.5712 241.758 32.209C238.487 28.8467 233.947 27.2038 228.06 27.2038C221.326 27.2038 216.016 29.1906 212.13 33.2024C208.243 37.2142 206.319 42.6014 206.319 49.3642V79.701H200.817V22.6953H206.089V35.0363C208.051 31.0245 211.014 27.8915 214.939 25.6373C218.863 23.383 223.481 22.2368 228.829 22.2368C236.025 22.275 241.719 24.3382 245.875 28.5029Z" fill="white"/>
<path d="M319.868 28.5029C324.063 32.6675 326.14 38.6279 326.14 46.4222V79.701H320.638V46.8425C320.638 40.4236 319.022 35.5712 315.751 32.209C312.481 28.8467 307.94 27.2038 302.053 27.2038C295.319 27.2038 290.009 29.1906 286.123 33.2024C282.237 37.2142 280.313 42.6014 280.313 49.3642V79.701H274.811V22.6953H280.082V35.0363C282.044 31.0245 285.007 27.8915 288.932 25.6373C292.857 23.383 297.474 22.2368 302.823 22.2368C310.018 22.275 315.713 24.3382 319.868 28.5029Z" fill="white"/>
<path d="M356.653 76.415C352.305 73.9315 348.881 70.4928 346.38 66.099C343.879 61.7051 342.647 56.7381 342.647 51.198C342.647 45.6579 343.879 40.6909 346.38 36.2971C348.881 31.9032 352.305 28.4645 356.653 25.981C361.001 23.4975 365.888 22.2749 371.314 22.2749C376.739 22.2749 381.626 23.4975 385.974 25.981C390.322 28.4645 393.746 31.9032 396.247 36.2971C398.748 40.6909 399.98 45.6579 399.98 51.198C399.98 56.7381 398.748 61.7051 396.247 66.099C393.746 70.4928 390.322 73.9315 385.974 76.415C381.626 78.8985 376.739 80.1211 371.314 80.1211C365.888 80.1211 361.001 78.8603 356.653 76.415ZM383.126 72.1358C386.589 70.1108 389.36 67.2452 391.361 63.6155C393.361 59.9858 394.4 55.8211 394.4 51.1598C394.4 46.4985 393.4 42.3721 391.361 38.7042C389.36 35.0744 386.589 32.2471 383.126 30.1839C379.663 28.1589 375.7 27.1273 371.314 27.1273C366.927 27.1273 362.964 28.1589 359.501 30.1839C356.038 32.2089 353.267 35.0744 351.266 38.7042C349.266 42.3339 348.227 46.4985 348.227 51.1598C348.227 55.8211 349.227 59.9475 351.266 63.6155C353.267 67.2452 356.038 70.1108 359.501 72.1358C362.964 74.1608 366.927 75.1924 371.314 75.1924C375.7 75.1924 379.663 74.199 383.126 72.1358Z" fill="white"/>
<path d="M461.468 22.6953L435.533 79.6628H429.916L404.097 22.6953H409.907L432.763 73.6642L455.85 22.6953H461.468Z" fill="white"/>
<path d="M507.411 27.6619C511.22 31.2534 513.144 36.5643 513.144 43.5563V79.7006H507.872V69.5374C506.025 72.8997 503.37 75.4978 499.83 77.3317C496.329 79.2039 492.096 80.1209 487.171 80.1209C480.784 80.1209 475.743 78.6308 472.049 75.6506C468.355 72.6704 466.508 68.735 466.508 63.8445C466.508 59.1067 468.201 55.286 471.626 52.344C475.05 49.402 480.476 47.9119 487.941 47.9119H507.603V43.327C507.603 38.0162 506.141 33.9662 503.255 31.2152C500.369 28.4643 496.136 27.0506 490.557 27.0506C486.748 27.0506 483.092 27.7001 479.629 28.9992C476.166 30.2982 473.203 32.0558 470.779 34.2336L468.047 30.2982C470.895 27.7383 474.358 25.7515 478.398 24.3379C482.438 22.9242 486.632 22.1982 491.057 22.1982C498.137 22.2747 503.601 24.0704 507.411 27.6619ZM500.1 72.3647C503.447 70.1869 505.948 67.0157 507.641 62.8511V52.153H488.056C482.4 52.153 478.321 53.1846 475.782 55.2096C473.242 57.2346 471.972 60.0619 471.972 63.6152C471.972 67.3214 473.357 70.2633 476.166 72.403C478.937 74.5426 482.861 75.6124 487.941 75.6124C492.712 75.6506 496.752 74.5426 500.1 72.3647Z" fill="white"/>
<path d="M564.243 76.0712C562.857 77.3703 561.126 78.3637 559.01 79.0896C556.932 79.7774 554.739 80.1212 552.468 80.1212C547.466 80.1212 543.618 78.7458 540.925 76.033C538.231 73.3203 536.846 69.4995 536.846 64.609V27.3948H526.303V22.6953H536.846V10.2778H542.349V22.7335H560.587V27.433H542.349V64.1123C542.349 67.8184 543.234 70.6458 545.042 72.5561C546.851 74.4665 549.505 75.4599 553.007 75.4599C556.585 75.4599 559.548 74.3901 561.895 72.2887L564.243 76.0712Z" fill="white"/>
<path d="M625.885 52.4972H576.517C576.671 56.9293 577.787 60.9029 579.942 64.3415C582.058 67.7802 584.944 70.4547 588.561 72.3651C592.178 74.2755 596.256 75.1925 600.835 75.1925C604.568 75.1925 608.031 74.5047 611.224 73.1675C614.418 71.8302 617.073 69.8434 619.189 67.2071L622.383 70.7986C619.882 73.7788 616.765 76.0713 612.994 77.676C609.224 79.2807 605.145 80.083 600.72 80.083C594.987 80.083 589.908 78.8604 585.444 76.3769C580.981 73.8934 577.479 70.4929 574.94 66.0991C572.4 61.7434 571.13 56.7382 571.13 51.1599C571.13 45.6198 572.323 40.6529 574.709 36.259C577.094 31.8651 580.365 28.4264 584.559 25.9429C588.753 23.4595 593.409 22.2368 598.642 22.2368C603.837 22.2368 608.531 23.4595 612.648 25.9047C616.804 28.35 620.036 31.7505 622.422 36.1062C624.807 40.4618 626 45.4288 626 50.9689L625.885 52.4972ZM587.753 29.7255C584.521 31.5213 581.943 34.0047 580.019 37.2524C578.095 40.5 576.94 44.1297 576.671 48.2179H620.652C620.421 44.1297 619.343 40.5 617.342 37.2906C615.38 34.0812 612.764 31.5977 609.531 29.7637C606.299 27.9297 602.682 27.051 598.642 27.051C594.602 27.051 590.985 27.9679 587.753 29.7255Z" fill="white"/>
</svg>
