<svg width="130" height="144" viewBox="0 0 130 144" fill="none" xmlns="http://www.w3.org/2000/svg">
<g filter="url(#filter0_d_1_1683)">
<path d="M109.98 27.5774C109.98 27.5677 109.981 27.5579 109.981 27.5482C109.981 15.7158 100.389 6.12402 88.5567 6.12402C76.7243 6.12402 67.1327 15.7156 67.1327 27.5482C67.1327 39.3808 76.7254 48.9724 88.5569 48.9724C90.9886 48.9724 93.3163 48.5484 95.4944 47.8016C90.6743 75.4529 69.1115 93.2852 89.1 78.6089C111.264 62.3344 110.005 28.2019 109.98 27.5774Z" fill="white"/>
<path d="M41.4242 48.9722C43.8559 48.9722 46.1837 48.5483 48.3628 47.8014C43.5415 75.4527 21.9786 93.285 41.9673 78.6087C64.1318 62.3344 62.8721 28.2019 62.8471 27.5774C62.8471 27.5677 62.8482 27.5579 62.8482 27.5482C62.8482 15.7158 53.2566 6.12402 41.4242 6.12402C29.5916 6.12402 20 15.7156 20 27.5482C20 39.3807 29.5927 48.9722 41.4242 48.9722Z" fill="white"/>
</g>
<defs>
<filter id="filter0_d_1_1683" x="0" y="0" width="130" height="150" filterUnits="userSpaceOnUse" color-interpolation-filters="sRGB">
<feFlood flood-opacity="0" result="BackgroundImageFix"/>
<feColorMatrix in="SourceAlpha" type="matrix" values="0 0 0 0 0 0 0 0 0 0 0 0 0 0 0 0 0 0 127 0" result="hardAlpha"/>
<feOffset dy="40"/>
<feGaussianBlur stdDeviation="10"/>
<feColorMatrix type="matrix" values="0 0 0 0 0.262778 0 0 0 0 0.545819 0 0 0 0 0.733333 0 0 0 1 0"/>
<feBlend mode="normal" in2="BackgroundImageFix" result="effect1_dropShadow_1_1683"/>
<feBlend mode="normal" in="SourceGraphic" in2="effect1_dropShadow_1_1683" result="shape"/>
</filter>
</defs>
</svg>
